<svg xmlns="http://www.w3.org/2000/svg" viewBox="0 0 354.59 141.52"><defs><style>.a{fill:#1d1d1b;}</style></defs><title>acmi-logo-slimline</title><path class="a" d="M443.85,361.92c-3.49,0-4.84-1.36-4.84-4.84v-9.3c0-3.49,1.36-4.84,4.84-4.84H474c3.3,0,4.65,1.36,4.65,4.84v95.83c0,3.48-1.36,4.84-4.65,4.84H456.82c-3.49,0-4.84-1.36-4.84-4.84v-81.7h-8.13ZM296.13,347.78c0-3.49,1.36-4.84,4.83-4.84h14.52c3.49,0,4.84,1.36,4.84,4.84v11h1c5.61-10.26,13.94-16.07,27.1-16.07,11,0,19.17,7.36,20.52,16.07h1c8.52-14.32,18.2-16.07,31.18-16.07,16.64,0,27.29,12,27.29,35.62v65.24c-0.19,3.48-1.54,4.84-5,4.84H406.47c-3.47,0-4.84-1.36-4.84-4.84V381.27c0-11.8-2.13-17.61-11.8-17.61-11.43,0-14.33,16.65-14.33,16.65v63.31c0,3.48-1.36,4.84-4.84,4.84H353.82c-3.49,0-4.84-1.36-4.84-4.84V381.27c0-11.8-2.13-17.61-11.62-17.61-11.42,0-14.72,16.65-14.72,16.65v63.31c0,3.48-1.35,4.84-4.84,4.84H301c-3.48,0-4.83-1.36-4.83-4.84V347.78ZM179.2,399.47H164.87a14.55,14.55,0,0,0-14.52,14.71c0,8.71,4.84,14.52,12.59,14.52,13.55,0,16.26-13,16.26-13V399.47Zm26.52,44.14c0,3.48-1.36,4.84-4.84,4.84H187.14c-3.29,0-4.65-1.36-4.65-4.84v-9.29h-1c-5.23,7-11.23,14.32-27.88,14.32-15.68,0-28.65-13-28.65-32.33A32.39,32.39,0,0,1,157.32,384H179.2v-5.61c0-11.61-6.2-15.68-18.2-15.68H140.87c-3.48,0-4.84-1.36-4.84-4.84V347.59c0-3.29,1.36-4.65,4.84-4.65h31.55a33.3,33.3,0,0,1,33.3,33.3v67.37Z" transform="translate(-124.99 -307.13)"/><path class="a" d="M278.73,448.45H256.46c-21.29,0-37.94-19.74-37.94-38.13V381.08c0-18.39,16.65-38.14,37.94-38.14h22.27c3.29,0,4.65,1.36,4.65,4.65v11.23c0,3.29-1.35,4.64-4.65,4.64h-15.1c-12,0-18.59,7.94-18.59,19.56v25.36c0,11.61,6.58,19.55,18.59,19.55h15.1c3.29,0,4.65,1.35,4.65,4.64v11.23c0,3.29-1.35,4.64-4.65,4.64" transform="translate(-124.99 -307.13)"/><path class="a" d="M451.13,312c0-3.49,1.35-4.84,4.84-4.84h19c3.29,0,4.64,1.36,4.64,4.84v12c0,3.48-1.35,4.84-4.64,4.84H456c-3.49,0-4.84-1.36-4.84-4.84V312Z" transform="translate(-124.99 -307.13)"/></svg>